<svg xmlns="http://www.w3.org/2000/svg" width="30" height="30"><path fill="#529ef4" d="M14.703 5.572c-6.627 0-12 5.373-12 12a12 12 0 0 0 .69 3.965c-.192-.8-.29-1.62-.295-2.443 0-5.935 4.81-10.746 10.746-10.746 2.13.002 4.213.637 5.982 1.826l2.14-2.14a12 12 0 0 0-7.263-2.462Zm9.149 3.604a1.152 1.152 0 0 0-.72.281l-9.193 7.781c-.422.358-1.416 1.412-.002 2.826 1.415 1.415 2.469.42 2.827-.003l7.783-9.19c.358-.423.392-1.022 0-1.414a.947.947 0 0 0-.695-.281Zm1.85 3.607-2.022 2.022c.58 1.323.889 2.75.906 4.195h2.016a12 12 0 0 0 .101-1.428 12 12 0 0 0-1.002-4.789Z"/></svg>