<svg xmlns="http://www.w3.org/2000/svg" width="800" height="800"><path fill="none" stroke="#539df3" stroke-linecap="round" stroke-linejoin="round" stroke-width="66.667" d="M677.556 41H121.444C77.568 41 42 76.773 42 120.901v46.805c0 21.192 8.37 41.515 23.269 56.5l231.518 232.848c14.899 14.986 23.269 35.309 23.269 56.499v218.023c0 25.272 30.383 37.929 48.15 20.059l31.294-31.473 56.175-56.499c14.9-14.985 23.27-35.308 23.27-56.498v-93.612c0-21.19 8.369-41.513 23.269-56.499L733.73 224.206c14.9-14.985 23.269-35.308 23.269-56.5v-46.805C757 76.773 721.433 41 677.556 41Z"/></svg>