<?xml version="1.0" ?><svg id="Outline" viewBox="0 0 512 512" xmlns="http://www.w3.org/2000/svg"><defs><style>.cls-1{fill:#262626;}</style></defs><path class="cls-1" d="M385.64,96.94H126.36A57.4,57.4,0,0,0,69,154.27v203.3a57.4,57.4,0,0,0,57.33,57.33H385.64A57.4,57.4,0,0,0,443,357.57V154.27A57.4,57.4,0,0,0,385.64,96.94ZM126.36,119.62H385.64a34.69,34.69,0,0,1,34.65,34.65V260.94l-84.61-84.61a11.34,11.34,0,0,0-16,0L207.47,288.49l-45-45a11.32,11.32,0,0,0-16,0L91.71,298.21V154.27A34.69,34.69,0,0,1,126.36,119.62Zm259.28,272.6H126.36a34.68,34.68,0,0,1-34.65-34.65V330.28l62.74-62.74,45,45a11.31,11.31,0,0,0,16,0L327.66,200.38,420.29,293v64.56A34.68,34.68,0,0,1,385.64,392.22Z"/></svg>