<svg xmlns="http://www.w3.org/2000/svg" width="800" height="800"><path fill="#539df3" fill-rule="evenodd" d="M140.18 191.163C201.28 115.246 294.967 66.667 400 66.667c16.222 0 32.169 1.158 47.769 3.397l28.347 56.688-108.49 108.488-116.666 16.667-57.178 57.178-53.601-117.922ZM97.828 259.09C77.834 301.89 66.667 349.64 66.667 400c0 164.2 118.725 300.671 275.013 328.249l18.271-29.605-101.52-141 69.307-89.84-32.952-16.475-119.663 19.942-23.405-93.618-53.891-118.562Zm122.421 117.807 4.624 18.498 80.338-13.392 66.906 33.454 120.435-16.73 216.533 126.316c15.64-38.613 24.25-80.822 24.25-125.044 0-136.12-81.592-253.184-198.534-304.953l22.431 44.869-158.178 158.178-116.666 16.666-62.139 62.138Zm457.703 207.164c-56.733 85.502-151.867 143.316-260.8 148.836L440.05 695.8l-98.48-136.778 62.222-80.658 75.089-10.426 199.071 116.124ZM400 0C179.086 0 0 179.086 0 400c0 220.916 179.086 400 400 400 220.916 0 400-179.084 400-400C800 179.086 620.916 0 400 0Z"/></svg>