<svg xmlns="http://www.w3.org/2000/svg" width="84" height="88" fill="none"><g fill="#fff" clip-path="url(#a)"><path d="M41.56 36.61c10.227 0 18.485-8.08 18.485-18.087C60.045 8.515 51.787.435 41.559.435c-10.227 0-18.485 8.08-18.485 18.088 0 10.008 8.258 18.088 18.485 18.088Zm.28-7.712c-1.22 0-2.251-1.01-2.251-2.203 0-1.194 1.032-2.204 2.252-2.204 1.22 0 2.252 1.01 2.252 2.204 0 1.193-1.032 2.203-2.252 2.203Zm-.187-20.75c2.721 0 4.973 1.285 6.099 3.489a5.994 5.994 0 0 1-.47 6.243c-.844 1.194-1.782 1.745-2.439 2.204-.75.46-1.032.735-1.126 1.928 0 .551-.469.919-1.032.919H41.09c-.563 0-1.032-.551-1.032-1.102.188-2.755 1.313-3.672 2.72-4.682a7.11 7.11 0 0 0 1.596-1.377c.563-.735.563-1.653.188-2.48-.282-.55-1.033-1.469-2.816-1.469-2.345 0-3.096 1.47-3.284 2.571-.094.46-.47.826-1.032.826h-1.596c-.657 0-1.125-.55-1.032-1.101.377-3.123 2.535-5.97 6.85-5.97h.001ZM25.89 48.088c0 5.527-4.58 10.008-10.229 10.008-5.648 0-10.228-4.48-10.228-10.008 0-5.527 4.58-10.008 10.228-10.008 5.65 0 10.228 4.481 10.228 10.008Zm-6.382 12.67h-7.6c-5.443 0-10.134 4.04-10.79 9.366l-1.033 8.63c-.094 1.102.563 2.205 1.689 2.388 4.41.918 9.102 1.377 13.887 1.377 1.97 0 3.941-.092 5.818-.276l.938-7.712c.47-3.948 2.534-7.437 5.536-9.825-1.97-2.387-5.066-3.947-8.444-3.947Zm58.178-12.67c0 5.527-4.58 10.008-10.229 10.008-5.648 0-10.228-4.48-10.228-10.008 0-5.527 4.58-10.008 10.228-10.008 5.649 0 10.229 4.481 10.229 10.008Zm4.316 22.036c-.657-5.325-5.254-9.365-10.79-9.365H63.61c-3.378 0-6.475 1.56-8.445 4.04 3.003 2.387 5.067 5.876 5.536 9.824l.939 7.713c1.877.183 3.847.275 5.818.275 4.88 0 9.477-.46 13.887-1.377 1.126-.275 1.876-1.285 1.689-2.387l-1.033-8.723Zm-36.689-4.316h-7.507c-5.536 0-10.134 4.04-10.79 9.366l-1.032 8.63c-.094 1.102.563 2.204 1.688 2.388 4.41.918 9.009 1.377 13.888 1.377 4.88 0 9.571-.46 13.887-1.377 1.126-.276 1.877-1.286 1.689-2.387l-1.032-8.631c-.657-5.326-5.254-9.366-10.791-9.366Zm6.475-12.67c0 5.527-4.58 10.007-10.228 10.007-5.649 0-10.228-4.48-10.228-10.007 0-5.528 4.58-10.009 10.228-10.009s10.228 4.481 10.228 10.009Z"/></g><defs><clipPath id="a"><path fill="#fff" d="M.004.435h83.111V87.66H.004z"/></clipPath></defs></svg>